<svg xmlns="http://www.w3.org/2000/svg" width="71" height="71" viewBox="0 0 71 71" fill="none"><g id="Misc_01" clip-path="url(#clip0_8_930)"><g id="Group"><g id="Group_2"><path id="Vector" fill-rule="evenodd" clip-rule="evenodd" d="M28.5167 14.3475C28.3292 13.235 28.188 12.1351 28.0967 11.0351C27.9592 9.38515 28.0442 7.72253 27.9955 6.07253C27.9742 5.37253 27.8905 3.54756 27.9242 3.28506C28.2305 0.997556 30.0767 0.647514 30.6167 0.585014C30.878 0.547514 33.5605 0.247648 34.1392 3.22265C34.8492 6.86015 35.0767 10.5226 34.8255 14.1101C35.4117 17.1601 36.4142 20.1975 37.738 22.9475C43.0055 33.885 53.0429 34.9476 63.9179 34.8476C65.5905 34.8226 66.9793 36.135 67.0668 37.7975C67.1543 39.4725 65.9093 40.9225 64.2443 41.0725C58.1655 41.66 47.3804 46.5351 43.6517 51.6101C42.8717 52.6726 42.418 55.2351 41.818 57.7476C40.9805 61.2351 39.9842 64.6851 38.868 66.1351C38.7005 66.3601 36.6642 68.6601 36.0567 68.9976C34.5967 69.7976 33.428 69.3351 32.7642 68.9101C32.1005 68.4851 31.3492 67.6476 31.0492 66.2601C30.7355 64.8101 31.0005 61.835 30.9517 61.1975C30.7742 58.885 30.3118 54.3475 29.368 50.4475C28.8593 48.3475 28.3167 46.41 27.4192 45.4475C24.0967 41.885 18.7842 42.4101 14.3105 42.9976C13.7967 43.0601 13.283 43.1351 12.7705 43.1976C10.9492 43.7351 9.01544 44.1351 6.97169 44.3726C3.88544 44.7351 3.37797 41.8975 3.35047 41.71C3.29297 41.2975 3.0792 39.1726 5.40545 38.3226C5.6592 38.2351 7.53172 37.8226 8.25297 37.6601C9.25797 37.4351 10.2742 37.2601 11.2942 37.0976C21.8305 33.8226 27.553 24.6225 28.5167 14.3475ZM32.133 25.7101C36.1105 33.9351 42.1467 37.9101 49.3017 39.7101H49.3005C44.833 42.0476 40.7692 44.9726 38.6154 47.9101C37.7979 49.0226 37.048 51.2601 36.3717 53.7726C36.0055 51.4351 35.5105 48.9475 34.8567 46.8225C34.113 44.3975 33.1117 42.3851 31.9942 41.1851C29.8367 38.8726 27.1292 37.5851 24.2179 36.9476C27.7029 33.8601 30.3455 30.0101 32.133 25.7101Z" fill="white" fill-opacity="0.6"></path></g></g></g><defs><clipPath id="clip0_8_930"><rect width="70" height="70" fill="white" transform="translate(0.789368 0.552917)"></rect></clipPath></defs></svg>