<svg xmlns="http://www.w3.org/2000/svg" width="47" height="46" viewBox="0 0 47 46" fill="none"><path fill-rule="evenodd" clip-rule="evenodd" d="M20.9193 17.2824C16.5565 13.7724 13.0213 9.59242 10.3648 4.72242C9.83351 3.75242 8.59725 3.38241 7.59594 3.90241C6.60486 4.42241 6.22674 5.63244 6.75805 6.61244C9.68022 11.9424 13.5425 16.5224 18.3242 20.3724C19.1927 21.0724 20.4902 20.9524 21.2055 20.1024C21.9207 19.2424 21.7878 17.9824 20.9193 17.2824Z" fill="white" fill-opacity="0.7"></path><path fill-rule="evenodd" clip-rule="evenodd" d="M18.5929 3.61246C18.8177 7.65246 19.0221 11.6925 19.2775 15.7325C19.349 16.8325 20.3197 17.6724 21.4436 17.6024C22.5675 17.5324 23.4258 16.5825 23.3542 15.4825C23.0988 11.4525 22.8944 7.42248 22.6696 3.38248C22.6083 2.28548 21.6377 1.44047 20.5138 1.50247C19.3899 1.56447 18.5214 2.50946 18.5929 3.61246Z" fill="white" fill-opacity="0.7"></path><path fill-rule="evenodd" clip-rule="evenodd" d="M33.7617 4.43252C31.146 8.29252 28.1831 11.8525 25.1996 15.4525C24.4844 16.3125 24.6172 17.5725 25.4958 18.2625C26.3745 18.9625 27.662 18.8325 28.367 17.9725C31.4322 14.2825 34.477 10.6125 37.1744 6.64248C37.7976 5.72248 37.5319 4.48252 36.5919 3.87252C35.6621 3.26252 34.3849 3.51252 33.7617 4.43252Z" fill="white" fill-opacity="0.7"></path><path fill-rule="evenodd" clip-rule="evenodd" d="M43.8938 18.7825C36.8029 19.0925 29.2727 19.1025 22.1818 18.6625C21.0579 18.6025 20.0873 19.4325 20.0158 20.5425C19.9442 21.6425 20.8025 22.5925 21.9264 22.6625C29.1603 23.1025 36.8439 23.0925 44.0778 22.7825C45.2017 22.7325 46.0803 21.7925 46.0292 20.6925C45.9781 19.5925 45.0177 18.7325 43.8938 18.7825Z" fill="white" fill-opacity="0.7"></path><path fill-rule="evenodd" clip-rule="evenodd" d="M18.3188 20.0524C22.6919 25.2924 27.2182 30.4324 31.2745 35.9124C31.9387 36.8024 33.2159 37.0023 34.1355 36.3523C35.0448 35.7023 35.2491 34.4523 34.585 33.5623C30.4776 28.0223 25.9002 22.8223 21.4761 17.5223C20.7609 16.6723 19.4734 16.5424 18.605 17.2424C17.7263 17.9424 17.6036 19.2024 18.3188 20.0524Z" fill="white" fill-opacity="0.7"></path><path fill-rule="evenodd" clip-rule="evenodd" d="M19.6432 21.5728C20.7875 27.0328 21.1043 32.2528 21.186 37.7828C21.1962 38.8828 22.126 39.7628 23.2499 39.7528C24.3841 39.7328 25.2832 38.8328 25.2627 37.7228C25.181 31.9328 24.8439 26.4828 23.6484 20.7628C23.4134 19.6828 22.3406 18.9828 21.2269 19.2128C20.1234 19.4328 19.4082 20.4928 19.6432 21.5728Z" fill="white" fill-opacity="0.7"></path><path fill-rule="evenodd" clip-rule="evenodd" d="M19.8276 21.133C16.5172 27.613 14.8109 34.813 11.2654 41.153C10.7239 42.113 11.0917 43.333 12.0827 43.863C13.0738 44.393 14.3102 44.033 14.8517 43.073C18.4176 36.693 20.1443 29.453 23.4854 22.923C23.986 21.933 23.5773 20.733 22.576 20.233C21.5645 19.743 20.3385 20.143 19.8276 21.133Z" fill="white" fill-opacity="0.7"></path><path fill-rule="evenodd" clip-rule="evenodd" d="M21.6495 19.6625C15.0592 20.8025 8.47924 21.3225 1.84816 22.0925C0.724244 22.2225 -0.0727127 23.2125 0.0601134 24.3125C0.192939 25.4125 1.20456 26.1925 2.32847 26.0625C9.03108 25.2925 15.6928 24.7525 22.3648 23.6025C23.4682 23.4025 24.2141 22.3625 24.02 21.2825C23.8156 20.1925 22.7632 19.4625 21.6495 19.6625Z" fill="white" fill-opacity="0.7"></path><path fill-rule="evenodd" clip-rule="evenodd" d="M26.2351 16.623C24.8762 16.563 23.5888 16.473 22.2605 16.283C21.1366 16.123 20.1047 16.883 19.9412 17.973C19.7777 19.063 20.5542 20.083 21.6679 20.243C23.1392 20.453 24.5594 20.553 26.0512 20.613C27.1751 20.663 28.1355 19.813 28.1763 18.703C28.2274 17.603 27.359 16.673 26.2351 16.623Z" fill="white" fill-opacity="0.7"></path></svg>