<svg xmlns="http://www.w3.org/2000/svg" width="48" height="46" viewBox="0 0 48 46" fill="none"><g clip-path="url(#clip0_121_151)"><path fill-rule="evenodd" clip-rule="evenodd" d="M21.7086 17.2824C17.3458 13.7724 13.8106 9.59242 11.1541 4.72242C10.6228 3.75242 9.38649 3.38241 8.38519 3.90241C7.3941 4.42241 7.01599 5.63244 7.54729 6.61244C10.4695 11.9424 14.3317 16.5224 19.1134 20.3724C19.9819 21.0724 21.2795 20.9524 21.9947 20.1024C22.7099 19.2424 22.5771 17.9824 21.7086 17.2824Z" fill="white" fill-opacity="0.5"></path><path fill-rule="evenodd" clip-rule="evenodd" d="M19.3822 3.61246C19.607 7.65246 19.8113 11.6925 20.0668 15.7325C20.1383 16.8325 21.109 17.6724 22.2329 17.6024C23.3568 17.5324 24.215 16.5825 24.1435 15.4825C23.8881 11.4525 23.6837 7.42248 23.4589 3.38248C23.3976 2.28548 22.427 1.44047 21.303 1.50247C20.1791 1.56447 19.3106 2.50946 19.3822 3.61246Z" fill="white" fill-opacity="0.5"></path><path fill-rule="evenodd" clip-rule="evenodd" d="M34.551 4.43252C31.9354 8.29252 28.9724 11.8525 25.989 15.4525C25.2737 16.3125 25.4065 17.5725 26.2852 18.2625C27.1639 18.9625 28.4513 18.8325 29.1563 17.9725C32.2215 14.2825 35.2663 10.6125 37.9637 6.64248C38.587 5.72248 38.3213 4.48252 37.3813 3.87252C36.4515 3.26252 35.1743 3.51252 34.551 4.43252Z" fill="white" fill-opacity="0.5"></path><path fill-rule="evenodd" clip-rule="evenodd" d="M44.6831 18.7825C37.5922 19.0925 30.062 19.1025 22.9712 18.6625C21.8472 18.6025 20.8766 19.4325 20.8051 20.5425C20.7335 21.6425 21.5918 22.5925 22.7157 22.6625C29.9496 23.1025 37.6332 23.0925 44.8671 22.7825C45.991 22.7325 46.8696 21.7925 46.8185 20.6925C46.7674 19.5925 45.807 18.7325 44.6831 18.7825Z" fill="white" fill-opacity="0.5"></path><path fill-rule="evenodd" clip-rule="evenodd" d="M19.1081 20.0524C23.4812 25.2924 28.0075 30.4324 32.0638 35.9124C32.728 36.8024 34.0052 37.0023 34.9248 36.3523C35.8341 35.7023 36.0384 34.4523 35.3743 33.5623C31.2669 28.0223 26.6895 22.8223 22.2654 17.5223C21.5502 16.6723 20.2627 16.5424 19.3943 17.2424C18.5156 17.9424 18.3929 19.2024 19.1081 20.0524Z" fill="white" fill-opacity="0.5"></path><path fill-rule="evenodd" clip-rule="evenodd" d="M20.4324 21.5728C21.5768 27.0328 21.8935 32.2528 21.9752 37.7828C21.9855 38.8828 22.9153 39.7628 24.0392 39.7528C25.1733 39.7328 26.0724 38.8328 26.052 37.7228C25.9702 31.9328 25.6331 26.4828 24.4377 20.7628C24.2027 19.6828 23.1298 18.9828 22.0162 19.2128C20.9127 19.4328 20.1974 20.4928 20.4324 21.5728Z" fill="white" fill-opacity="0.5"></path><path fill-rule="evenodd" clip-rule="evenodd" d="M20.6169 21.133C17.3064 27.613 15.6001 34.813 12.0547 41.153C11.5132 42.113 11.8809 43.333 12.872 43.863C13.8631 44.393 15.0995 44.033 15.641 43.073C19.2069 36.693 20.9336 29.453 24.2747 22.923C24.7753 21.933 24.3666 20.733 23.3653 20.233C22.3538 19.743 21.1278 20.143 20.6169 21.133Z" fill="white" fill-opacity="0.5"></path><path fill-rule="evenodd" clip-rule="evenodd" d="M22.4388 19.6625C15.8486 20.8025 9.26855 21.3225 2.63746 22.0925C1.51355 22.2225 0.716594 23.2125 0.84942 24.3125C0.982246 25.4125 1.99386 26.1925 3.11778 26.0625C9.82038 25.2925 16.4821 24.7525 23.1541 23.6025C24.2575 23.4025 25.0034 22.3625 24.8093 21.2825C24.6049 20.1925 23.5525 19.4625 22.4388 19.6625Z" fill="white" fill-opacity="0.5"></path><path fill-rule="evenodd" clip-rule="evenodd" d="M27.0244 16.623C25.6655 16.563 24.3781 16.473 23.0498 16.283C21.9259 16.123 20.894 16.883 20.7305 17.973C20.567 19.063 21.3435 20.083 22.4572 20.243C23.9285 20.453 25.3487 20.553 26.8405 20.613C27.9644 20.663 28.9248 19.813 28.9656 18.703C29.0167 17.603 28.1483 16.673 27.0244 16.623Z" fill="white" fill-opacity="0.5"></path></g><defs><clipPath id="clip0_121_151"><rect width="47" height="46" fill="white" transform="translate(0.789307)"></rect></clipPath></defs></svg>